<svg width="458" height="61" viewBox="0 0 458 61" fill="none" xmlns="http://www.w3.org/2000/svg">
<path d="M21.52 0.111996H25.68L4.56 60.4H0.4L21.52 0.111996ZM29.7505 26.928C30.8172 24.6667 32.3958 22.96 34.4865 21.808C36.6198 20.656 39.2438 20.08 42.3585 20.08V24.496L41.2705 24.432C37.7292 24.432 34.9558 25.52 32.9505 27.696C30.9452 29.872 29.9425 32.9227 29.9425 36.848V54H25.3985V20.336H29.7505V26.928ZM50.586 20.336H55.13V54H50.586V20.336ZM52.89 12.976C51.9513 12.976 51.162 12.656 50.522 12.016C49.882 11.376 49.562 10.608 49.562 9.712C49.562 8.85867 49.882 8.112 50.522 7.472C51.162 6.832 51.9513 6.512 52.89 6.512C53.8287 6.512 54.618 6.832 55.258 7.472C55.898 8.06933 56.218 8.79466 56.218 9.648C56.218 10.5867 55.898 11.376 55.258 12.016C54.618 12.656 53.8287 12.976 52.89 12.976ZM81.7255 54.32C78.3975 54.32 75.4108 53.5947 72.7655 52.144C70.1628 50.6933 68.1148 48.6667 66.6215 46.064C65.1282 43.4187 64.3815 40.4533 64.3815 37.168C64.3815 33.8827 65.1282 30.9387 66.6215 28.336C68.1148 25.7333 70.1628 23.7067 72.7655 22.256C75.4108 20.8053 78.3975 20.08 81.7255 20.08C84.6268 20.08 87.2082 20.656 89.4695 21.808C91.7735 22.9173 93.5868 24.56 94.9095 26.736L91.5175 29.04C90.4082 27.376 89.0002 26.1387 87.2935 25.328C85.5868 24.4747 83.7308 24.048 81.7255 24.048C79.2935 24.048 77.0962 24.6027 75.1335 25.712C73.2135 26.7787 71.6988 28.3147 70.5895 30.32C69.5228 32.3253 68.9895 34.608 68.9895 37.168C68.9895 39.7707 69.5228 42.0747 70.5895 44.08C71.6988 46.0427 73.2135 47.5787 75.1335 48.688C77.0962 49.7547 79.2935 50.288 81.7255 50.288C83.7308 50.288 85.5868 49.8827 87.2935 49.072C89.0002 48.2613 90.4082 47.024 91.5175 45.36L94.9095 47.664C93.5868 49.84 91.7735 51.504 89.4695 52.656C87.1655 53.7653 84.5842 54.32 81.7255 54.32ZM133.994 20.336V54H129.642V47.344C128.276 49.6053 126.463 51.3333 124.202 52.528C121.983 53.7227 119.466 54.32 116.65 54.32C113.492 54.32 110.634 53.5947 108.074 52.144C105.514 50.6933 103.508 48.6667 102.058 46.064C100.607 43.4613 99.8815 40.496 99.8815 37.168C99.8815 33.84 100.607 30.8747 102.058 28.272C103.508 25.6693 105.514 23.664 108.074 22.256C110.634 20.8053 113.492 20.08 116.65 20.08C119.38 20.08 121.834 20.656 124.01 21.808C126.228 22.9173 128.042 24.56 129.45 26.736V20.336H133.994ZM117.034 50.288C119.38 50.288 121.492 49.7547 123.37 48.688C125.29 47.5787 126.783 46.0213 127.85 44.016C128.959 42.0107 129.514 39.728 129.514 37.168C129.514 34.608 128.959 32.3253 127.85 30.32C126.783 28.3147 125.29 26.7787 123.37 25.712C121.492 24.6027 119.38 24.048 117.034 24.048C114.644 24.048 112.49 24.6027 110.57 25.712C108.692 26.7787 107.199 28.3147 106.09 30.32C105.023 32.3253 104.49 34.608 104.49 37.168C104.49 39.728 105.023 42.0107 106.09 44.016C107.199 46.0213 108.692 47.5787 110.57 48.688C112.49 49.7547 114.644 50.288 117.034 50.288ZM151.001 26.928C152.067 24.6667 153.646 22.96 155.737 21.808C157.87 20.656 160.494 20.08 163.609 20.08V24.496L162.521 24.432C158.979 24.432 156.206 25.52 154.201 27.696C152.195 29.872 151.193 32.9227 151.193 36.848V54H146.649V20.336H151.001V26.928ZM202.244 6.512V54H197.892V47.344C196.526 49.6053 194.713 51.3333 192.452 52.528C190.233 53.7227 187.716 54.32 184.9 54.32C181.742 54.32 178.884 53.5947 176.324 52.144C173.764 50.6933 171.758 48.6667 170.308 46.064C168.857 43.4613 168.132 40.496 168.132 37.168C168.132 33.84 168.857 30.8747 170.308 28.272C171.758 25.6693 173.764 23.664 176.324 22.256C178.884 20.8053 181.742 20.08 184.9 20.08C187.63 20.08 190.084 20.656 192.26 21.808C194.478 22.9173 196.292 24.56 197.7 26.736V6.512H202.244ZM185.284 50.288C187.63 50.288 189.742 49.7547 191.62 48.688C193.54 47.5787 195.033 46.0213 196.1 44.016C197.209 42.0107 197.764 39.728 197.764 37.168C197.764 34.608 197.209 32.3253 196.1 30.32C195.033 28.3147 193.54 26.7787 191.62 25.712C189.742 24.6027 187.63 24.048 185.284 24.048C182.894 24.048 180.74 24.6027 178.82 25.712C176.942 26.7787 175.449 28.3147 174.34 30.32C173.273 32.3253 172.74 34.608 172.74 37.168C172.74 39.728 173.273 42.0107 174.34 44.016C175.449 46.0213 176.942 47.5787 178.82 48.688C180.74 49.7547 182.894 50.288 185.284 50.288ZM228.659 54.32C225.416 54.32 222.493 53.5947 219.891 52.144C217.288 50.6507 215.24 48.6027 213.747 46C212.253 43.3973 211.507 40.4533 211.507 37.168C211.507 33.8827 212.253 30.9387 213.747 28.336C215.24 25.7333 217.288 23.7067 219.891 22.256C222.493 20.8053 225.416 20.08 228.659 20.08C231.901 20.08 234.824 20.8053 237.427 22.256C240.029 23.7067 242.056 25.7333 243.507 28.336C245 30.9387 245.747 33.8827 245.747 37.168C245.747 40.4533 245 43.3973 243.507 46C242.056 48.6027 240.029 50.6507 237.427 52.144C234.824 53.5947 231.901 54.32 228.659 54.32ZM228.659 50.288C231.048 50.288 233.181 49.7547 235.059 48.688C236.979 47.5787 238.472 46.0213 239.539 44.016C240.605 42.0107 241.139 39.728 241.139 37.168C241.139 34.608 240.605 32.3253 239.539 30.32C238.472 28.3147 236.979 26.7787 235.059 25.712C233.181 24.6027 231.048 24.048 228.659 24.048C226.269 24.048 224.115 24.6027 222.195 25.712C220.317 26.7787 218.824 28.3147 217.715 30.32C216.648 32.3253 216.115 34.608 216.115 37.168C216.115 39.728 216.648 42.0107 217.715 44.016C218.824 46.0213 220.317 47.5787 222.195 48.688C224.115 49.7547 226.269 50.288 228.659 50.288ZM264.496 54.32C261.466 54.32 259.12 53.4667 257.456 51.76C255.834 50.0533 255.024 47.6853 255.024 44.656V6.512H259.568V44.272C259.568 46.2773 260.037 47.8133 260.976 48.88C261.914 49.904 263.322 50.416 265.2 50.416C266.394 50.416 267.418 50.224 268.272 49.84L268.592 53.616C267.269 54.0853 265.904 54.32 264.496 54.32ZM304.869 20.336V54H300.517V47.344C299.151 49.6053 297.338 51.3333 295.077 52.528C292.858 53.7227 290.341 54.32 287.525 54.32C284.367 54.32 281.509 53.5947 278.949 52.144C276.389 50.6933 274.383 48.6667 272.933 46.064C271.482 43.4613 270.757 40.496 270.757 37.168C270.757 33.84 271.482 30.8747 272.933 28.272C274.383 25.6693 276.389 23.664 278.949 22.256C281.509 20.8053 284.367 20.08 287.525 20.08C290.255 20.08 292.709 20.656 294.885 21.808C297.103 22.9173 298.917 24.56 300.325 26.736V20.336H304.869ZM287.909 50.288C290.255 50.288 292.367 49.7547 294.245 48.688C296.165 47.5787 297.658 46.0213 298.725 44.016C299.834 42.0107 300.389 39.728 300.389 37.168C300.389 34.608 299.834 32.3253 298.725 30.32C297.658 28.3147 296.165 26.7787 294.245 25.712C292.367 24.6027 290.255 24.048 287.909 24.048C285.519 24.048 283.365 24.6027 281.445 25.712C279.567 26.7787 278.074 28.3147 276.965 30.32C275.898 32.3253 275.365 34.608 275.365 37.168C275.365 39.728 275.898 42.0107 276.965 44.016C278.074 46.0213 279.567 47.5787 281.445 48.688C283.365 49.7547 285.519 50.288 287.909 50.288ZM347.86 20.336V54H343.507V47.856C342.313 49.904 340.67 51.504 338.58 52.656C336.489 53.7653 334.1 54.32 331.412 54.32C327.017 54.32 323.54 53.104 320.98 50.672C318.462 48.1973 317.204 44.592 317.204 39.856V20.336H321.748V39.408C321.748 42.9493 322.622 45.6373 324.372 47.472C326.121 49.3067 328.617 50.224 331.86 50.224C335.401 50.224 338.196 49.1573 340.244 47.024C342.292 44.848 343.316 41.84 343.316 38V20.336H347.86ZM364.938 26.928C366.005 24.6667 367.583 22.96 369.674 21.808C371.807 20.656 374.431 20.08 377.546 20.08V24.496L376.458 24.432C372.917 24.432 370.143 25.52 368.138 27.696C366.133 29.872 365.13 32.9227 365.13 36.848V54H360.586V20.336H364.938V26.928ZM385.774 20.336H390.318V54H385.774V20.336ZM388.078 12.976C387.139 12.976 386.35 12.656 385.71 12.016C385.07 11.376 384.75 10.608 384.75 9.712C384.75 8.85867 385.07 8.112 385.71 7.472C386.35 6.832 387.139 6.512 388.078 6.512C389.016 6.512 389.806 6.832 390.446 7.472C391.086 8.06933 391.406 8.79466 391.406 9.648C391.406 10.5867 391.086 11.376 390.446 12.016C389.806 12.656 389.016 12.976 388.078 12.976ZM419.537 51.952C418.684 52.72 417.638 53.3173 416.401 53.744C415.164 54.128 413.862 54.32 412.497 54.32C409.34 54.32 406.908 53.4667 405.201 51.76C403.494 50.0533 402.641 47.6427 402.641 44.528V12.976H407.185V20.336H417.361V24.176H407.185V44.272C407.185 46.2773 407.676 47.8133 408.657 48.88C409.638 49.904 411.068 50.416 412.945 50.416C414.993 50.416 416.657 49.84 417.937 48.688L419.537 51.952ZM440.346 54.32C437.103 54.32 434.181 53.5947 431.578 52.144C428.975 50.6507 426.927 48.6027 425.434 46C423.941 43.3973 423.194 40.4533 423.194 37.168C423.194 33.8827 423.941 30.9387 425.434 28.336C426.927 25.7333 428.975 23.7067 431.578 22.256C434.181 20.8053 437.103 20.08 440.346 20.08C443.589 20.08 446.511 20.8053 449.114 22.256C451.717 23.7067 453.743 25.7333 455.194 28.336C456.687 30.9387 457.434 33.8827 457.434 37.168C457.434 40.4533 456.687 43.3973 455.194 46C453.743 48.6027 451.717 50.6507 449.114 52.144C446.511 53.5947 443.589 54.32 440.346 54.32ZM440.346 50.288C442.735 50.288 444.869 49.7547 446.746 48.688C448.666 47.5787 450.159 46.0213 451.226 44.016C452.293 42.0107 452.826 39.728 452.826 37.168C452.826 34.608 452.293 32.3253 451.226 30.32C450.159 28.3147 448.666 26.7787 446.746 25.712C444.869 24.6027 442.735 24.048 440.346 24.048C437.957 24.048 435.802 24.6027 433.882 25.712C432.005 26.7787 430.511 28.3147 429.402 30.32C428.335 32.3253 427.802 34.608 427.802 37.168C427.802 39.728 428.335 42.0107 429.402 44.016C430.511 46.0213 432.005 47.5787 433.882 48.688C435.802 49.7547 437.957 50.288 440.346 50.288Z" fill="url(#paint0_linear_216_327)"/>
<defs>
<linearGradient id="paint0_linear_216_327" x1="2" y1="31" x2="461" y2="31" gradientUnits="userSpaceOnUse">
<stop stop-color="#E81CFF"/>
</linearGradient>
</defs>
</svg>
